REM DIRINDEX 1\4,1\2\5,1\2\6,1\2\7,1\3\8,1\3\9,1\3\10,1\3\11
REM DIRNAME folder01,folder02,folder03,folder04,folder05,folder06,folder07,folder08,folder09,folder10,folder11
TITLE ""
FILE "t_k_491-502.mp3" MP3
  TRACK 01 AUDIO
    TITLE "5:cjc108_1477"
    INDEX 01 00:00:00
  TRACK 02 AUDIO
    TITLE "0:"
    INDEX 01 00:01:11
  TRACK 03 AUDIO
    TITLE "6:cjc108_1478"
    INDEX 01 00:01:24
  TRACK 04 AUDIO
    TITLE "0:"
    INDEX 01 00:03:53
  TRACK 05 AUDIO
    TITLE "7:cjc108_1479"
    INDEX 01 00:03:68
  TRACK 06 AUDIO
    TITLE "0:"
    INDEX 01 00:10:04
  TRACK 07 AUDIO
    TITLE "5:cjc108_1480"
    INDEX 01 00:10:66
  TRACK 08 AUDIO
    TITLE "0:"
    INDEX 01 00:12:28
  TRACK 09 AUDIO
    TITLE "6:cjc108_1481"
    INDEX 01 00:12:42
  TRACK 10 AUDIO
    TITLE "0:"
    INDEX 01 00:15:13
  TRACK 11 AUDIO
    TITLE "7:cjc108_1482"
    INDEX 01 00:15:28
  TRACK 12 AUDIO
    TITLE "0:"
    INDEX 01 00:21:11
  TRACK 13 AUDIO
    TITLE "5:cjc108_1483"
    INDEX 01 00:21:70
  TRACK 14 AUDIO
    TITLE "0:"
    INDEX 01 00:23:03
  TRACK 15 AUDIO
    TITLE "6:cjc108_1484"
    INDEX 01 00:23:20
  TRACK 16 AUDIO
    TITLE "0:"
    INDEX 01 00:26:05
  TRACK 17 AUDIO
    TITLE "7:cjc108_1485"
    INDEX 01 00:26:28
  TRACK 18 AUDIO
    TITLE "0:"
    INDEX 01 00:30:32
  TRACK 19 AUDIO
    TITLE "5:cjc108_1486"
    INDEX 01 00:31:27
  TRACK 20 AUDIO
    TITLE "0:"
    INDEX 01 00:32:62
  TRACK 21 AUDIO
    TITLE "6:cjc108_1487"
    INDEX 01 00:32:72
  TRACK 22 AUDIO
    TITLE "0:"
    INDEX 01 00:34:02
  TRACK 23 AUDIO
    TITLE "7:cjc108_1488"
    INDEX 01 00:34:32
  TRACK 24 AUDIO
    TITLE "0:"
    INDEX 01 00:39:62
  TRACK 25 AUDIO
    TITLE "5:cjc108_1489"
    INDEX 01 00:40:56
  TRACK 26 AUDIO
    TITLE "0:"
    INDEX 01 00:41:61
  TRACK 27 AUDIO
    TITLE "6:cjc108_1490"
    INDEX 01 00:41:73
  TRACK 28 AUDIO
    TITLE "0:"
    INDEX 01 00:44:20
  TRACK 29 AUDIO
    TITLE "7:cjc108_1491"
    INDEX 01 00:44:38
  TRACK 30 AUDIO
    TITLE "0:"
    INDEX 01 00:49:29
  TRACK 31 AUDIO
    TITLE "5:cjc108_1492"
    INDEX 01 00:50:27
  TRACK 32 AUDIO
    TITLE "0:"
    INDEX 01 00:51:38
  TRACK 33 AUDIO
    TITLE "6:cjc108_1493"
    INDEX 01 00:51:58
  TRACK 34 AUDIO
    TITLE "0:"
    INDEX 01 00:53:17
  TRACK 35 AUDIO
    TITLE "7:cjc108_1494"
    INDEX 01 00:53:35
  TRACK 36 AUDIO
    TITLE "0:"
    INDEX 01 00:59:02
  TRACK 37 AUDIO
    TITLE "5:cjc108_1495"
    INDEX 01 00:59:57
  TRACK 38 AUDIO
    TITLE "0:"
    INDEX 01 01:01:01
  TRACK 39 AUDIO
    TITLE "6:cjc108_1496"
    INDEX 01 01:01:29
  TRACK 40 AUDIO
    TITLE "0:"
    INDEX 01 01:02:55
  TRACK 41 AUDIO
    TITLE "7:cjc108_1497"
    INDEX 01 01:02:71
  TRACK 42 AUDIO
    TITLE "0:"
    INDEX 01 01:07:27
  TRACK 43 AUDIO
    TITLE "5:cjc108_1498"
    INDEX 01 01:08:11
  TRACK 44 AUDIO
    TITLE "0:"
    INDEX 01 01:09:44
  TRACK 45 AUDIO
    TITLE "6:cjc108_1499"
    INDEX 01 01:09:56
  TRACK 46 AUDIO
    TITLE "0:"
    INDEX 01 01:11:68
  TRACK 47 AUDIO
    TITLE "7:cjc108_1500"
    INDEX 01 01:12:03
  TRACK 48 AUDIO
    TITLE "0:"
    INDEX 01 01:16:52
  TRACK 49 AUDIO
    TITLE "5:cjc108_1501"
    INDEX 01 01:17:41
  TRACK 50 AUDIO
    TITLE "0:"
    INDEX 01 01:18:58
  TRACK 51 AUDIO
    TITLE "6:cjc108_1502"
    INDEX 01 01:19:13
  TRACK 52 AUDIO
    TITLE "0:"
    INDEX 01 01:21:41
  TRACK 53 AUDIO
    TITLE "7:cjc108_1503"
    INDEX 01 01:21:57
  TRACK 54 AUDIO
    TITLE "0:"
    INDEX 01 01:25:19
  TRACK 55 AUDIO
    TITLE "5:cjc108_1504"
    INDEX 01 01:26:09
  TRACK 56 AUDIO
    TITLE "0:"
    INDEX 01 01:27:18
  TRACK 57 AUDIO
    TITLE "6:cjc108_1505"
    INDEX 01 01:27:48
  TRACK 58 AUDIO
    TITLE "0:"
    INDEX 01 01:31:16
  TRACK 59 AUDIO
    TITLE "7:cjc108_1506"
    INDEX 01 01:31:34
  TRACK 60 AUDIO
    TITLE "0:"
    INDEX 01 01:35:49
  TRACK 61 AUDIO
    TITLE "5:cjc108_1507"
    INDEX 01 01:36:39
  TRACK 62 AUDIO
    TITLE "0:"
    INDEX 01 01:37:56
  TRACK 63 AUDIO
    TITLE "6:cjc108_1508"
    INDEX 01 01:38:04
  TRACK 64 AUDIO
    TITLE "0:"
    INDEX 01 01:39:02
  TRACK 65 AUDIO
    TITLE "7:cjc108_1509"
    INDEX 01 01:39:29
  TRACK 66 AUDIO
    TITLE "0:"
    INDEX 01 01:44:05
  TRACK 67 AUDIO
    TITLE "5:cjc108_1510"
    INDEX 01 01:44:60
  TRACK 68 AUDIO
    TITLE "0:"
    INDEX 01 01:46:31
  TRACK 69 AUDIO
    TITLE "6:cjc108_1511"
    INDEX 01 01:46:63
  TRACK 70 AUDIO
    TITLE "0:"
    INDEX 01 01:50:54
  TRACK 71 AUDIO
    TITLE "7:cjc108_1512"
    INDEX 01 01:50:72
  TRACK 72 AUDIO
    TITLE "0:"
    INDEX 01 01:54:68
